<svg xmlns="http://www.w3.org/2000/svg" viewBox="0 0 64 64">
  <circle cx="46" cy="15" r="9" fill="#FF7A59"/>
  <path d="M0,40 C10,32 20,48 32,40 C44,32 54,48 64,40 L64,64 L0,64 Z" fill="#38BDF8" opacity="0.35"/>
  <path d="M0,47 C10,39 20,55 32,47 C44,39 54,55 64,47 L64,64 L0,64 Z" fill="#0EA5A6"/>
  <path d="M16,43 C21,36 43,36 48,43 C43,50 21,50 16,43 Z" fill="#FF7A59"/>
  <circle cx="32" cy="33" r="5.5" fill="#F7FBFC" stroke="#0B2436" stroke-width="2"/>
  <line x1="21" y1="38" x2="43" y2="29" stroke="#38BDF8" stroke-width="3.5" stroke-linecap="round"/>
</svg>
